<?xml version="1.0" encoding="UTF-8"?>
<svg id="Calque_2" data-name="Calque 2" xmlns="http://www.w3.org/2000/svg" viewBox="0 0 612.04 53.11">
  <defs>
    <style>
      .cls-1 {
        fill: #051039;
      }

      .cls-2 {
        fill: red;
      }
    </style>
  </defs>
  <g id="Calque_1-2" data-name="Calque 1">
    <g>
      <path id="logo1" class="cls-2" d="m579.26,0l-27.49,40.09c-3.62,5.28-9.49,10.36-16.58,10.9v1.23h30.58c8.11,0,14.03-5.33,18.04-11.19L612.04,0h-32.78Z"/>
      <path id="logo2" class="cls-1" d="m72.97,4.4h13.84v47.83h-13.84V4.4Zm319.21,47.82l-33.25-28.4v28.4h-11.69V4.4h9.93l32.81,27.96V4.4h11.69v47.82h-9.49Zm72.34-32.39c-6.26-3.11-13.3-5.62-22.64-5.62-11.15,0-19.47,5.82-19.47,13.9s8.46,14.15,19.37,14.15c8.99,0,16.14-2.32,23.18-6.41v11.84c-6.21,3.1-14.48,5.42-23.77,5.42-18.97,0-33.89-9.76-33.89-25s15.21-24.61,33.85-24.61c8.8,0,16.77,1.68,23.38,4.39v11.94ZM163.84,52.23V4.4h46.27v10.25h-32.42v11.88h31.69v10.26h-31.69v15.43s-13.84,0-13.84,0Zm309.04,0V4.4h48.03v10.25h-34.19v8.28h33.65v10.26h-33.65v8.77h34.04v10.26h-47.88Zm-214.7-17.95l19.12,17.95h-14.77c-3.28,0-5.43-1.04-7.14-2.71l-13.01-12.72c-.25-.25-.64-.39-1.13-.39h-8.85v15.83h-13.84V4.4h29.98c15.55,0,22.1,7.05,22.1,14.84,0,9.07-8.02,13.41-12.47,15.04m-11.05-7.89c5.48,0,8.12-2.81,8.12-5.96s-2.35-5.77-8.12-5.77h-14.72v11.73h14.72Zm-107.74,7.89l19.12,17.95h-14.77c-3.28,0-5.43-1.04-7.14-2.71l-13.01-12.72c-.25-.25-.64-.39-1.13-.39h-8.85v15.83h-13.84V4.4h29.98c15.55,0,22.1,7.05,22.1,14.84,0,9.07-8.02,13.41-12.47,15.04m-11.05-7.89c5.48,0,8.12-2.81,8.12-5.96s-2.35-5.77-8.12-5.77h-14.72v11.73h14.72Zm-77.03,25.84l-6.06-10.5h-26.51l-5.53,10.5H0L26.41,4.45h12.03l29.93,47.78h-17.07Zm-27.29-20.46h15.45l-8.02-14.59-7.43,14.59Zm303.66,20.46l-5.92-10.5h-25.82l-5.33,10.5h-12.86l25.72-47.78h11.69l29.1,47.78s-16.58,0-16.58,0Zm-26.56-20.46h15.06l-7.82-14.59-7.24,14.59Z"/>
    </g>
  </g>
</svg>